<?xml version="1.0" standalone="no"?>
<!DOCTYPE svg PUBLIC "-//W3C//DTD SVG 20010904//EN"
 "http://www.w3.org/TR/2001/REC-SVG-20010904/DTD/svg10.dtd">
<svg version="1.0" xmlns="http://www.w3.org/2000/svg"
 width="300.000000pt" height="300.000000pt" viewBox="0 0 300.000000 300.000000"
 preserveAspectRatio="xMidYMid meet">
<metadata>
Created by potrace 1.10, written by Peter Selinger 2001-2011
</metadata>
<g transform="translate(0.000000,300.000000) scale(0.050000,-0.050000)"
fill="#8b8989" stroke="none">
<path d="M2080 4648 c-788 -211 -908 -1382 -166 -1626 612 -202 871 -58 1095
608 102 302 223 608 253 639 37 39 14 63 -147 155 -393 225 -746 301 -1035
224z m460 -156 c28 -5 89 -23 138 -40 48 -18 104 -32 125 -32 20 0 37 -10 37
-21 0 -12 9 -16 20 -9 11 7 20 3 20 -9 0 -11 7 -20 15 -19 40 7 66 -4 55 -22
-7 -11 1 -15 17 -8 19 7 39 -7 54 -35 14 -26 35 -54 47 -62 16 -11 14 -20 -4
-32 -23 -14 -32 -52 -42 -159 -1 -15 -11 -21 -22 -14 -11 7 -20 -7 -20 -31 0
-50 -58 -182 -89 -203 -12 -8 -21 -22 -22 -30 -3 -51 -35 -179 -49 -196 -17
-21 -20 -31 -20 -80 0 -16 -14 -30 -30 -30 -17 0 -29 -7 -28 -15 8 -50 -6
-106 -33 -134 -18 -17 -25 -31 -17 -31 29 0 -142 -119 -172 -120 -16 0 -56
-14 -87 -30 -61 -32 -253 -42 -253 -13 0 9 -20 15 -45 13 -66 -6 -99 11 -86
44 6 15 2 23 -9 16 -49 -30 -100 -27 -100 6 -1 23 -5 26 -16 10 -18 -29 -184
39 -184 76 0 13 -15 35 -34 49 -29 21 -30 30 -8 57 23 27 22 32 -5 32 -36 0
-118 163 -118 233 0 130 30 304 51 299 13 -3 17 -2 9 3 -8 5 -15 26 -15 48 0
22 9 34 20 27 11 -7 15 1 9 16 -6 16 3 44 21 61 18 18 27 33 20 33 -7 0 4 27
23 60 20 33 44 60 55 60 21 0 152 137 152 159 0 15 121 60 184 68 19 3 42 12
50 21 15 14 275 4 386 -16z"/>
<path d="M3697 4552 c-114 -24 -142 -39 -242 -130 -90 -81 -13 -96 123 -23 39
21 44 20 31 -2 -14 -22 -11 -22 14 -2 17 13 36 19 43 12 7 -7 18 1 25 17 7 20
28 27 60 21 28 -6 49 0 49 12 0 14 38 18 105 13 188 -16 251 -33 297 -82 25
-26 57 -48 71 -48 33 0 91 -86 83 -123 -3 -15 8 -25 24 -23 18 3 48 -32 74
-86 32 -68 36 -88 15 -80 -17 6 -29 -1 -29 -19 0 -16 14 -29 30 -29 17 0 31
-11 33 -25 5 -50 -4 -207 -17 -295 -7 -49 -12 -119 -11 -155 1 -36 -6 -61 -16
-54 -10 6 -16 -50 -13 -130 5 -171 20 -175 90 -26 77 164 81 686 8 869 -126
312 -467 468 -847 388z"/>
<path d="M3305 4065 c-60 -298 -137 -553 -206 -693 -33 -65 -59 -120 -59 -123
0 -2 52 8 115 23 237 56 492 28 895 -98 121 -37 250 -74 286 -81 l66 -12 -36
61 c-134 228 -936 1138 -1004 1138 -7 0 -32 -97 -57 -215z m271 -240 c15 -14
35 -25 45 -25 11 0 17 -7 14 -15 -2 -8 31 -51 75 -94 44 -44 78 -87 75 -95 -3
-9 8 -16 24 -16 32 0 72 -60 69 -104 -1 -20 -3 -20 -12 1 -7 17 -16 20 -24 7
-7 -12 -39 -27 -72 -34 -48 -11 -54 -9 -30 10 25 19 21 22 -19 13 -27 -6 -62
0 -79 13 -23 19 -27 19 -15 -1 23 -37 -57 -32 -96 6 -17 18 -31 26 -31 20 0
-7 -19 -2 -43 11 -37 19 -41 18 -30 -11 7 -19 4 -28 -7 -21 -26 16 -26 70 0
70 11 0 20 10 20 21 0 12 -10 15 -23 7 -21 -13 -16 57 11 152 5 17 10 37 10
46 1 9 11 11 22 4 11 -7 20 1 20 18 0 16 -10 36 -22 43 -16 10 -14 19 4 30 25
16 52 3 114 -56z"/>
<path d="M3827 2939 c-367 -73 -684 -455 -908 -1097 -80 -229 -87 -218 205
-361 721 -351 1284 -265 1573 241 368 642 -146 1361 -870 1217z m48 -207 c14
2 32 6 40 9 40 15 280 7 270 -9 -6 -11 4 -13 22 -6 21 8 39 2 45 -15 6 -16 23
-24 38 -18 15 5 32 -8 40 -32 7 -23 22 -36 32 -30 29 18 118 -47 118 -86 1
-26 5 -28 17 -9 14 21 20 21 37 0 34 -44 85 -191 71 -205 -8 -7 -2 -21 13 -30
18 -11 22 -36 13 -79 -8 -34 -21 -58 -29 -53 -9 5 -15 -3 -15 -19 0 -16 7 -24
16 -18 10 6 17 -19 17 -54 0 -71 -40 -198 -62 -198 -7 0 -19 -23 -26 -51 -16
-61 -111 -172 -135 -157 -9 5 -11 -4 -5 -21 8 -19 -2 -36 -25 -44 -20 -7 -53
-27 -72 -43 -19 -17 -35 -24 -35 -16 0 8 -14 1 -32 -17 -17 -17 -40 -26 -50
-19 -11 6 -33 1 -49 -13 -23 -19 -36 -18 -59 1 -26 21 -29 20 -20 -4 10 -24
-16 -29 -149 -31 -89 -1 -161 7 -161 17 0 10 -44 17 -97 15 -91 -3 -223 36
-223 66 0 8 -49 24 -110 37 -60 13 -110 30 -110 38 0 8 -21 27 -48 41 -64 34
-57 153 20 301 31 61 58 115 59 120 18 67 58 139 82 149 17 6 26 24 20 41 -6
16 4 44 23 63 19 19 34 44 35 56 0 11 12 19 26 16 14 -4 21 3 14 13 -7 11 3
31 20 46 18 14 54 47 79 72 33 33 49 38 56 20 10 -23 22 28 17 67 -1 7 20 11
47 8 29 -3 44 3 36 15 -8 13 0 16 21 8 20 -8 33 -3 33 12 0 27 84 72 100 54 6
-6 21 -10 35 -8z"/>
<path d="M1777 2855 c-82 -56 366 -624 772 -979 212 -184 202 -181 218 -61 45
339 167 631 307 737 l83 64 -113 13 c-226 26 -481 75 -849 162 -206 49 -377
88 -380 88 -3 -1 -20 -11 -38 -24z m479 -280 c14 5 47 -5 74 -23 26 -17 62
-26 79 -20 17 7 31 5 31 -5 0 -15 45 -22 195 -29 25 -1 45 -11 45 -21 0 -11 9
-14 20 -7 21 13 27 -13 21 -80 -7 -62 -63 -171 -83 -159 -10 6 -18 2 -18 -10
0 -11 9 -21 20 -21 30 0 24 -59 -9 -92 -31 -31 -111 -2 -111 40 0 23 -96 112
-121 112 -10 0 -20 9 -21 20 -2 11 -4 28 -5 38 -2 10 -11 26 -21 35 -11 10
-12 5 -3 -13 9 -16 -21 11 -66 60 -45 50 -82 101 -82 115 -1 14 -10 25 -21 25
-11 0 -20 14 -20 31 0 22 9 26 35 12 19 -9 47 -13 61 -8z"/>
<path d="M1616 2690 c-205 -303 -177 -871 55 -1129 236 -260 805 -268 999 -13
60 78 66 121 15 94 -141 -76 -293 -139 -311 -129 -11 8 -14 3 -6 -10 10 -16
-6 -20 -57 -14 -40 5 -67 1 -61 -9 6 -10 -13 -11 -45 -2 -30 9 -73 10 -95 2
-22 -8 -73 -3 -113 11 -40 14 -78 22 -83 16 -5 -5 -33 14 -62 43 -29 29 -60
47 -70 41 -10 -6 -50 56 -91 138 -40 82 -82 151 -93 155 -11 4 -1 27 22 51 23
25 32 45 20 45 -14 0 -19 24 -13 60 7 42 -1 66 -24 81 -24 15 -26 24 -8 32 19
8 19 16 -3 37 -31 32 -19 125 20 165 18 18 21 41 9 72 -12 32 -5 70 22 130 22
47 37 114 33 149 l-6 64 -54 -80z"/>

</g>
</svg>
